<svg xmlns="http://www.w3.org/2000/svg" width="64" height="64" viewBox="0 0 64 64" fill="none">
  <rect x="2" y="2" width="60" height="60" rx="18" fill="url(#bg)" stroke="url(#ring)" stroke-width="2"/>

  <circle cx="45" cy="18" r="5" fill="url(#sun)"/>

  <path d="M19 42.5C19 30.6 27.8 21.8 39.7 21.8H44.8C44.8 33.7 36 42.5 24.1 42.5H19Z" fill="url(#leafA)"/>
  <path d="M17.5 48C17.5 38.8 24.5 31.8 33.7 31.8H37.5C37.5 41 30.5 48 21.3 48H17.5Z" fill="url(#leafB)"/>

  <path d="M16 49.5C21 39.6 29.8 32.2 41.2 27.7" stroke="#214F22" stroke-width="2.35" stroke-linecap="round"/>
  <path d="M27.2 35.2C30.5 33.8 33.4 31.1 35.2 27.9" stroke="#E9FFE6" stroke-width="1.35" stroke-linecap="round"/>

  <defs>
    <linearGradient id="bg" x1="7" y1="7" x2="57" y2="58" gradientUnits="userSpaceOnUse">
      <stop offset="0" stop-color="#EAF8E4"/>
      <stop offset="0.55" stop-color="#8CC57E"/>
      <stop offset="1" stop-color="#2E6326"/>
    </linearGradient>
    <linearGradient id="ring" x1="8" y1="8" x2="56" y2="56" gradientUnits="userSpaceOnUse">
      <stop stop-color="#F7FFF4" stop-opacity="0.86"/>
      <stop offset="1" stop-color="#2E6326" stop-opacity="0.26"/>
    </linearGradient>
    <linearGradient id="leafA" x1="21" y1="24" x2="43" y2="40" gradientUnits="userSpaceOnUse">
      <stop stop-color="#F4FFE9"/>
      <stop offset="0.58" stop-color="#D6F1C8"/>
      <stop offset="1" stop-color="#A8D693"/>
    </linearGradient>
    <linearGradient id="leafB" x1="19" y1="34" x2="36" y2="47" gradientUnits="userSpaceOnUse">
      <stop stop-color="#E9FFD9"/>
      <stop offset="1" stop-color="#98CD85"/>
    </linearGradient>
    <radialGradient id="sun" cx="0" cy="0" r="1" gradientUnits="userSpaceOnUse" gradientTransform="translate(43.2 16.2) rotate(44) scale(8.4)">
      <stop stop-color="#FFCC76"/>
      <stop offset="0.72" stop-color="#F49C2F"/>
      <stop offset="1" stop-color="#CB6E12"/>
    </radialGradient>
  </defs>
</svg>
